<?xml version="1.0" standalone="no"?>
<!DOCTYPE svg PUBLIC "-//W3C//DTD SVG 20010904//EN"
 "http://www.w3.org/TR/2001/REC-SVG-20010904/DTD/svg10.dtd">
<svg version="1.0" xmlns="http://www.w3.org/2000/svg"
 width="2048.000000pt" height="2048.000000pt" viewBox="0 0 2048.000000 2048.000000"
 preserveAspectRatio="xMidYMid meet">

<g transform="translate(0.000000,2048.000000) scale(0.100000,-0.100000)"
fill="#000000" stroke="none">
<path d="M6655 14013 c-246 -20 -494 -93 -677 -198 -411 -238 -699 -605 -812
-1038 -107 -409 -73 -792 103 -1163 67 -139 127 -231 239 -364 94 -112 163
-174 309 -276 178 -125 343 -199 564 -254 68 -17 133 -34 144 -37 11 -4 603
-9 1315 -13 1283 -5 1296 -6 1370 -27 132 -37 190 -64 294 -134 374 -249 544
-725 407 -1131 -88 -260 -248 -455 -483 -587 -87 -49 -249 -100 -353 -111
-122 -13 -2688 -13 -2780 0 -125 18 -258 97 -336 199 -36 49 -49 74 -92 168
-9 21 -13 199 -17 693 l-5 665 -370 0 -370 0 0 -650 c0 -719 2 -741 66 -941
57 -179 123 -300 231 -426 196 -229 427 -367 723 -431 l100 -22 1450 0 1450 0
115 23 c132 26 325 87 432 135 91 42 263 145 343 206 100 77 277 260 351 366
153 216 239 414 291 669 23 116 26 154 27 336 0 170 -3 225 -21 320 -82 430
-284 774 -613 1040 -246 199 -493 309 -818 364 -80 14 -250 16 -1310 16 -1308
0 -1280 -1 -1442 51 -199 64 -394 222 -502 405 -93 159 -132 299 -131 479 1
268 86 468 279 660 135 135 250 200 444 252 60 16 178 18 1599 23 l1534 5 22
100 c28 124 72 237 129 336 45 76 204 265 235 277 11 5 3 9 -24 13 -41 6
-3338 8 -3410 2z"/>
<path d="M10750 14010 c-329 -31 -636 -264 -734 -557 -55 -162 -55 -168 -59
-1140 l-4 -902 96 -64 c250 -166 421 -338 584 -584 l61 -93 646 0 c512 0 670
-3 765 -15 305 -38 517 -147 819 -419 206 -186 348 -285 551 -386 324 -160
517 -205 944 -217 l223 -6 -4 -266 c-4 -255 -6 -269 -30 -333 -14 -37 -40 -89
-57 -117 -72 -111 -221 -211 -346 -231 -37 -6 -717 -10 -1795 -10 l-1735 0
-36 -63 c-76 -129 -266 -343 -420 -472 -42 -35 -119 -93 -172 -128 -53 -36
-93 -67 -90 -71 11 -11 4181 -7 4272 4 320 41 560 156 783 376 182 180 296
405 343 679 13 73 15 181 15 578 0 269 -2 505 -5 525 -2 21 -10 78 -16 127
-13 101 -58 312 -124 574 -24 97 -66 275 -94 396 -44 188 -120 512 -215 910
-13 55 -45 188 -70 295 -122 514 -180 675 -323 891 -89 134 -172 229 -281 326
-166 145 -357 255 -561 323 -233 78 -134 73 -1571 75 -707 1 -1319 -1 -1360
-5z m839 -754 c411 -107 684 -446 707 -880 10 -185 -42 -383 -140 -529 -96
-144 -279 -300 -423 -361 -165 -69 -168 -70 -626 -74 l-417 -3 2 888 c3 1002
-3 925 81 964 40 18 62 19 397 16 290 -3 367 -7 419 -21z m1786 4 c186 -41
380 -168 495 -323 109 -145 158 -273 234 -602 25 -110 84 -360 131 -555 47
-195 138 -573 201 -840 64 -267 122 -502 129 -523 11 -33 11 -39 -2 -44 -25
-10 -312 5 -413 22 -112 18 -192 43 -315 98 -133 59 -259 147 -459 321 -98 86
-197 169 -220 186 -136 100 -171 123 -271 172 -60 30 -136 65 -167 77 -32 13
-58 25 -58 27 0 2 26 39 58 82 157 212 264 469 303 727 22 142 17 416 -9 557
-34 182 -129 441 -206 563 -18 28 -36 56 -40 63 -6 9 48 12 256 12 225 0 276
-3 353 -20z"/>
</g>
</svg>
