<svg width="42" height="42" viewBox="0 0 42 42" fill="none" xmlns="http://www.w3.org/2000/svg">
<path d="M6.94836 29.5307C6.94836 30.4521 7.3144 31.3358 7.96593 31.9874C8.61747 32.6389 9.50115 33.0049 10.4226 33.0049C11.344 33.0049 12.2277 32.6389 12.8792 31.9874C13.5307 31.3358 13.8968 30.4521 13.8968 29.5307C13.8968 28.6093 13.5307 27.7256 12.8792 27.0741C12.2277 26.4226 11.344 26.0565 10.4226 26.0565C9.50115 26.0565 8.61747 26.4226 7.96593 27.0741C7.3144 27.7256 6.94836 28.6093 6.94836 29.5307ZM27.7936 29.5307C27.7936 30.4521 28.1596 31.3358 28.8112 31.9874C29.4627 32.6389 30.3464 33.0049 31.2678 33.0049C32.1892 33.0049 33.0729 32.6389 33.7244 31.9874C34.376 31.3358 34.742 30.4521 34.742 29.5307C34.742 28.6093 34.376 27.7256 33.7244 27.0741C33.0729 26.4226 32.1892 26.0565 31.2678 26.0565C30.3464 26.0565 29.4627 26.4226 28.8112 27.0741C28.1596 27.7256 27.7936 28.6093 27.7936 29.5307Z" stroke="white" stroke-width="2" stroke-linecap="round" stroke-linejoin="round"/>
<path d="M6.94838 29.5308H3.47418V10.4226C3.47418 9.96194 3.6572 9.5201 3.98297 9.19433C4.30874 8.86856 4.75058 8.68555 5.21128 8.68555H29.5307C31.8342 8.68555 34.0434 9.96666 35.6723 12.247C37.3011 14.5274 38.2162 17.6203 38.2162 20.8453V29.5308H34.742M27.7936 29.5308H13.8968" stroke="white" stroke-width="2" stroke-linecap="round" stroke-linejoin="round"/>
<path d="M27.7936 8.68555L30.3993 20.8453H38.2162M3.47418 17.3711H29.5307M12.1597 8.68555V17.3711M20.8452 8.68555V17.3711" stroke="white" stroke-width="2" stroke-linecap="round" stroke-linejoin="round"/>
</svg>
