<svg width="39" height="39" viewBox="0 0 39 39" fill="none" xmlns="http://www.w3.org/2000/svg">
<path d="M31.6875 4.875H28.0313V3.65625C28.0313 3.33302 27.9028 3.02302 27.6743 2.79446C27.4457 2.5659 27.1357 2.4375 26.8125 2.4375C26.4893 2.4375 26.1793 2.5659 25.9507 2.79446C25.7222 3.02302 25.5938 3.33302 25.5938 3.65625V4.875H13.4063V3.65625C13.4063 3.33302 13.2778 3.02302 13.0493 2.79446C12.8207 2.5659 12.5107 2.4375 12.1875 2.4375C11.8643 2.4375 11.5543 2.5659 11.3257 2.79446C11.0972 3.02302 10.9688 3.33302 10.9688 3.65625V4.875H7.3125C6.66603 4.875 6.04605 5.13181 5.58893 5.58893C5.13181 6.04605 4.875 6.66603 4.875 7.3125V31.6875C4.875 32.334 5.13181 32.954 5.58893 33.4111C6.04605 33.8682 6.66603 34.125 7.3125 34.125H31.6875C32.334 34.125 32.954 33.8682 33.4111 33.4111C33.8682 32.954 34.125 32.334 34.125 31.6875V7.3125C34.125 6.66603 33.8682 6.04605 33.4111 5.58893C32.954 5.13181 32.334 4.875 31.6875 4.875ZM10.9688 7.3125V8.53125C10.9688 8.85448 11.0972 9.16448 11.3257 9.39304C11.5543 9.6216 11.8643 9.75 12.1875 9.75C12.5107 9.75 12.8207 9.6216 13.0493 9.39304C13.2778 9.16448 13.4063 8.85448 13.4063 8.53125V7.3125H25.5938V8.53125C25.5938 8.85448 25.7222 9.16448 25.9507 9.39304C26.1793 9.6216 26.4893 9.75 26.8125 9.75C27.1357 9.75 27.4457 9.6216 27.6743 9.39304C27.9028 9.16448 28.0313 8.85448 28.0313 8.53125V7.3125H31.6875V12.1875H7.3125V7.3125H10.9688ZM31.6875 31.6875H7.3125V14.625H31.6875V31.6875ZM17.0625 18.2812V28.0312C17.0625 28.3545 16.9341 28.6645 16.7055 28.893C16.477 29.1216 16.167 29.25 15.8438 29.25C15.5205 29.25 15.2105 29.1216 14.982 28.893C14.7534 28.6645 14.625 28.3545 14.625 28.0312V20.2526L13.9516 20.5908C13.6623 20.7354 13.3274 20.7592 13.0206 20.6569C12.7138 20.5547 12.4601 20.3347 12.3155 20.0454C12.1708 19.7561 12.147 19.4212 12.2493 19.1144C12.3516 18.8075 12.5716 18.5539 12.8609 18.4092L15.2984 17.1905C15.4842 17.0975 15.6908 17.0535 15.8985 17.0629C16.1061 17.0722 16.3079 17.1345 16.4847 17.2438C16.6615 17.3531 16.8074 17.5058 16.9085 17.6874C17.0096 17.869 17.0626 18.0734 17.0625 18.2812ZM26.0752 22.9201L23.1563 26.8125H25.5938C25.917 26.8125 26.227 26.9409 26.4555 27.1695C26.6841 27.398 26.8125 27.708 26.8125 28.0312C26.8125 28.3545 26.6841 28.6645 26.4555 28.893C26.227 29.1216 25.917 29.25 25.5938 29.25H20.7188C20.4924 29.25 20.2705 29.187 20.078 29.068C19.8855 28.949 19.7299 28.7787 19.6287 28.5763C19.5274 28.3738 19.4846 28.1472 19.5049 27.9218C19.5253 27.6964 19.608 27.4811 19.7438 27.3L24.1282 21.4546C24.2279 21.3218 24.2995 21.1701 24.3385 21.0086C24.3774 20.8472 24.383 20.6796 24.3548 20.5159C24.3267 20.3523 24.2654 20.1961 24.1747 20.057C24.084 19.9179 23.9659 19.7988 23.8275 19.707C23.6891 19.6152 23.5335 19.5527 23.37 19.5232C23.2066 19.4937 23.0389 19.498 22.8772 19.5356C22.7155 19.5733 22.5632 19.6436 22.4296 19.7423C22.296 19.841 22.1841 19.9659 22.1005 20.1094C22.0228 20.2524 21.9173 20.3784 21.7902 20.48C21.663 20.5816 21.5168 20.6567 21.3602 20.7008C21.2035 20.745 21.0396 20.7573 20.8781 20.7371C20.7166 20.7169 20.5608 20.6645 20.4199 20.5831C20.279 20.5017 20.1558 20.3929 20.0576 20.2631C19.9594 20.1334 19.8882 19.9852 19.8481 19.8275C19.8081 19.6697 19.8001 19.5055 19.8246 19.3446C19.849 19.1837 19.9055 19.0294 19.9905 18.8906C20.3931 18.1939 21.0143 17.6495 21.7578 17.3417C22.5012 17.034 23.3254 16.98 24.1026 17.1883C24.8799 17.3966 25.5667 17.8554 26.0566 18.4937C26.5465 19.132 26.8122 19.9141 26.8125 20.7188C26.8151 21.5136 26.556 22.2872 26.0752 22.9201Z" fill="white"/>
</svg>
