<svg width="38" height="38" viewBox="0 0 38 38" fill="none" xmlns="http://www.w3.org/2000/svg">
<path d="M24.8798 15.5499C24.8798 12.1134 22.0964 9.32996 18.6599 9.32996C15.2234 9.32996 12.4399 12.1134 12.4399 15.5499C12.4399 18.9864 15.2234 21.7699 18.6599 21.7699C22.0964 21.7699 24.8798 18.9864 24.8798 15.5499ZM15.5499 15.5499C15.5499 13.8394 16.9494 12.4399 18.6599 12.4399C20.3704 12.4399 21.7699 13.8394 21.7699 15.5499C21.7699 17.2604 20.3704 18.6599 18.6599 18.6599C16.9494 18.6599 15.5499 17.2604 15.5499 15.5499Z" fill="white"/>
<path d="M17.758 33.9144C18.0223 34.101 18.3489 34.2098 18.6599 34.2098C18.9709 34.2098 19.2974 34.1165 19.5618 33.9144C20.0283 33.5723 31.1465 25.5641 31.0998 15.5344C31.0998 8.6769 25.5174 3.09448 18.6599 3.09448C11.8024 3.09448 6.21996 8.6769 6.21996 15.5344C6.17331 25.5485 17.2915 33.5723 17.758 33.9144ZM18.6599 6.22001C23.8069 6.22001 27.9898 10.4029 27.9898 15.55C28.0209 22.4541 21.1634 28.6585 18.6599 30.6956C16.1564 28.6585 9.29885 22.4697 9.32995 15.55C9.32995 10.4029 13.5129 6.22001 18.6599 6.22001Z" fill="white"/>
</svg>
