<svg width="40" height="40" viewBox="0 0 40 40" fill="none" xmlns="http://www.w3.org/2000/svg">
<path d="M19.97 3.32861C16.6786 3.32861 13.4611 4.30471 10.7244 6.13348C7.98767 7.96225 5.85467 10.5615 4.5951 13.6027C3.33553 16.6438 3.00597 19.9902 3.6481 23.2186C4.29022 26.4471 5.87518 29.4126 8.20256 31.7402C10.5299 34.0678 13.4952 35.6529 16.7234 36.295C19.9515 36.9372 23.2976 36.6076 26.3385 35.3479C29.3794 34.0883 31.9784 31.9551 33.807 29.2181C35.6356 26.4812 36.6117 23.2634 36.6117 19.9717C36.6117 17.7861 36.1812 15.6219 35.3449 13.6027C34.5086 11.5834 33.2828 9.74872 31.7374 8.20327C30.1921 6.65781 28.3575 5.43189 26.3385 4.59549C24.3194 3.7591 22.1554 3.32861 19.97 3.32861ZM19.97 33.2862C17.3369 33.2862 14.7629 32.5053 12.5735 31.0423C10.3841 29.5793 8.67774 27.4999 7.67008 25.067C6.66243 22.634 6.39878 19.9569 6.91248 17.3742C7.42617 14.7914 8.69415 12.419 10.556 10.557C12.418 8.69489 14.7902 7.42681 17.3727 6.91307C19.9552 6.39933 22.6321 6.663 25.0648 7.67074C27.4975 8.67848 29.5767 10.385 31.0396 12.5746C32.5025 14.7641 33.2833 17.3384 33.2833 19.9717C33.2833 23.5029 31.8807 26.8895 29.3839 29.3865C26.8872 31.8834 23.5009 33.2862 19.97 33.2862Z" fill="white"/>
<path d="M26.6267 18.3074H21.6342V13.3145C21.6342 12.8731 21.4588 12.4497 21.1467 12.1376C20.8346 11.8255 20.4114 11.6501 19.97 11.6501C19.5286 11.6501 19.1053 11.8255 18.7933 12.1376C18.4812 12.4497 18.3058 12.8731 18.3058 13.3145V19.9717C18.3058 20.4131 18.4812 20.8364 18.7933 21.1485C19.1053 21.4607 19.5286 21.636 19.97 21.636H26.6267C27.068 21.636 27.4913 21.4607 27.8034 21.1485C28.1155 20.8364 28.2908 20.4131 28.2908 19.9717C28.2908 19.5303 28.1155 19.107 27.8034 18.7949C27.4913 18.4827 27.068 18.3074 26.6267 18.3074Z" fill="white"/>
</svg>
