<svg width="80" height="81" viewBox="0 0 80 81" fill="none" xmlns="http://www.w3.org/2000/svg">
<g clip-path="url(#clip0_192_395)">
<path d="M1.70713 40.0152C1.70525 46.8208 3.47525 53.466 6.84088 59.3231L1.38525 79.3351L21.7703 73.9652C27.4085 77.0488 33.7257 78.6646 40.1453 78.6651H40.1621C61.3543 78.6651 78.6053 61.3402 78.6143 40.0457C78.6184 29.727 74.6221 20.0239 67.3615 12.7239C60.1021 5.42447 50.4474 1.40241 40.1606 1.39771C18.9659 1.39771 1.71619 18.7217 1.70744 40.0152" fill="url(#paint0_linear_192_395)"/>
<path d="M0.334375 40.0027C0.332188 47.0532 2.16562 53.936 5.65125 60.0028L0 80.7322L21.1159 75.1699C26.9341 78.3568 33.4847 80.0371 40.1503 80.0396H40.1675C62.12 80.0396 79.9906 62.0915 80 40.0347C80.0038 29.3452 75.8637 19.2934 68.3438 11.7318C60.8228 4.17119 50.8228 0.00439535 40.1675 0C18.2112 0 0.343125 17.9456 0.334375 40.0027ZM12.9097 58.958L12.1212 57.7006C8.80687 52.4061 7.0575 46.2877 7.06 40.0052C7.06687 21.6719 21.9181 6.75628 40.18 6.75628C49.0238 6.76005 57.335 10.2236 63.5863 16.5077C69.8372 22.7924 73.2769 31.1467 73.2747 40.0322C73.2666 58.3655 58.415 73.283 40.1675 73.283H40.1544C34.2128 73.2799 28.3856 71.6768 23.3037 68.6475L22.0944 67.927L9.56375 71.2276L12.9097 58.958Z" fill="url(#paint1_linear_192_395)"/>
<path d="M30.2119 23.279C29.4662 21.6141 28.6816 21.5805 27.9725 21.5513C27.3919 21.5262 26.7281 21.5281 26.065 21.5281C25.4012 21.5281 24.3228 21.779 23.4112 22.7789C22.4987 23.7798 19.9275 26.1985 19.9275 31.1178C19.9275 36.0372 23.4941 40.7917 23.9912 41.4594C24.4891 42.126 30.8766 52.5442 40.9928 56.5521C49.4003 59.8829 51.1112 59.2204 52.9359 59.0534C54.7609 58.887 58.8247 56.6353 59.6537 54.3005C60.4834 51.9659 60.4834 49.9648 60.2347 49.5466C59.9859 49.13 59.3222 48.8797 58.3269 48.3799C57.3316 47.8801 52.4381 45.4608 51.5259 45.1271C50.6134 44.7936 49.95 44.6272 49.2862 45.6284C48.6225 46.6281 46.7166 48.8797 46.1356 49.5466C45.5553 50.215 44.9744 50.2982 43.9794 49.798C42.9834 49.2964 39.7781 48.2418 35.9753 44.8357C33.0166 42.1853 31.0191 38.9123 30.4384 37.9111C29.8578 36.9115 30.3762 36.3696 30.8753 35.8714C31.3225 35.4234 31.8709 34.7038 32.3691 34.1202C32.8653 33.5362 33.0309 33.1196 33.3628 32.4527C33.695 31.7853 33.5287 31.2013 33.2803 30.7012C33.0309 30.2011 31.0969 25.256 30.2119 23.279Z" fill="white"/>
</g>
<defs>
<linearGradient id="paint0_linear_192_395" x1="3862.84" y1="7795.14" x2="3862.84" y2="1.39771" gradientUnits="userSpaceOnUse">
<stop stop-color="#125287"/>
<stop offset="1" stop-color="#0C9FAF" stop-opacity="0.74"/>
</linearGradient>
<linearGradient id="paint1_linear_192_395" x1="4000" y1="8073.22" x2="4000" y2="0" gradientUnits="userSpaceOnUse">
<stop stop-color="#F9F9F9"/>
<stop offset="1" stop-color="white"/>
</linearGradient>
<clipPath id="clip0_192_395">
<rect width="80" height="81" fill="white"/>
</clipPath>
</defs>
</svg>
