<svg width="70" height="70" viewBox="0 0 70 70" fill="none" xmlns="http://www.w3.org/2000/svg">
<path d="M55.5625 14.3208C52.8881 11.6203 49.703 9.47908 46.1927 8.02191C42.6825 6.56473 38.9173 5.82076 35.1167 5.83335C19.1917 5.83335 6.2125 18.8125 6.2125 34.7375C6.2125 39.8417 7.55416 44.8 10.0625 49.175L5.97916 64.1667L21.2917 60.1417C25.5208 62.4459 30.275 63.6709 35.1167 63.6709C51.0417 63.6709 64.0208 50.6917 64.0208 34.7667C64.0208 27.0375 61.0167 19.775 55.5625 14.3208ZM35.1167 58.7709C30.8 58.7709 26.5708 57.6042 22.8667 55.4167L21.9917 54.8917L12.8917 57.2834L15.3125 48.4167L14.7292 47.5125C12.3303 43.6831 11.0569 39.2562 11.0542 34.7375C11.0542 21.4959 21.8458 10.7042 35.0875 10.7042C41.5042 10.7042 47.5417 13.2125 52.0625 17.7625C54.3014 19.9905 56.0756 22.6408 57.2822 25.5597C58.4889 28.4787 59.1039 31.6082 59.0917 34.7667C59.15 48.0084 48.3583 58.7709 35.1167 58.7709ZM48.3 40.8042C47.5708 40.4542 44.0125 38.7042 43.3708 38.4417C42.7 38.2084 42.2333 38.0917 41.7375 38.7917C41.2417 39.5209 39.8708 41.1542 39.4625 41.6209C39.0542 42.1167 38.6167 42.175 37.8875 41.7959C37.1583 41.4459 34.825 40.6584 32.0833 38.2084C29.925 36.2834 28.4958 33.9209 28.0583 33.1917C27.65 32.4625 28 32.0834 28.3792 31.7042C28.7 31.3834 29.1083 30.8584 29.4583 30.45C29.8083 30.0417 29.9542 29.7209 30.1875 29.2542C30.4208 28.7584 30.3042 28.35 30.1292 28C29.9542 27.65 28.4958 24.0917 27.9125 22.6334C27.3292 21.2334 26.7167 21.4083 26.2792 21.3792H24.8792C24.3833 21.3792 23.625 21.5542 22.9542 22.2833C22.3125 23.0125 20.4458 24.7625 20.4458 28.3209C20.4458 31.8792 23.0417 35.3209 23.3917 35.7875C23.7417 36.2834 28.4958 43.575 35.7292 46.6959C37.45 47.4542 38.7917 47.8917 39.8417 48.2125C41.5625 48.7667 43.1375 48.6792 44.3917 48.5042C45.7917 48.3 48.6792 46.7542 49.2625 45.0625C49.875 43.3709 49.875 41.9417 49.6708 41.6209C49.4667 41.3 49.0292 41.1542 48.3 40.8042Z" fill="#FFE9E9"/>
</svg>
