<svg width="52" height="52" viewBox="0 0 52 52" fill="none" xmlns="http://www.w3.org/2000/svg">
<path d="M40.5513 10.4518C38.5995 8.48085 36.2749 6.9181 33.713 5.8546C31.1511 4.7911 28.4031 4.24813 25.6293 4.25732C14.0067 4.25732 4.53406 13.7299 4.53406 25.3525C4.53406 29.0777 5.51326 32.6965 7.34392 35.8895L4.36377 46.8309L15.5393 43.8934C18.6259 45.575 22.0957 46.4691 25.6293 46.4691C37.2519 46.4691 46.7245 36.9964 46.7245 25.3738C46.7245 19.7328 44.532 14.4324 40.5513 10.4518ZM25.6293 42.8929C22.4788 42.8929 19.3923 42.0414 16.6888 40.4449L16.0502 40.0617L9.40874 41.8072L11.1755 35.3361L10.7498 34.6762C8.99907 31.8813 8.06964 28.6505 8.06767 25.3525C8.06767 15.6883 15.9438 7.81221 25.608 7.81221C30.2911 7.81221 34.6975 9.64288 37.9969 12.9636C39.6309 14.5896 40.9258 16.5239 41.8065 18.6543C42.6871 20.7846 43.136 23.0687 43.127 25.3738C43.1696 35.038 35.2935 42.8929 25.6293 42.8929ZM35.2509 29.7802C34.7188 29.5248 32.1218 28.2476 31.6535 28.056C31.1639 27.8857 30.8233 27.8005 30.4614 28.3114C30.0995 28.8436 29.099 30.0356 28.801 30.3762C28.503 30.7381 28.1837 30.7807 27.6515 30.504C27.1194 30.2485 25.4164 29.6738 23.4155 27.8857C21.8402 26.4807 20.7972 24.7565 20.4779 24.2243C20.1799 23.6922 20.4353 23.4154 20.712 23.1387C20.9462 22.9046 21.2442 22.5214 21.4996 22.2234C21.7551 21.9254 21.8615 21.6912 22.0318 21.3506C22.2021 20.9888 22.117 20.6907 21.9892 20.4353C21.8615 20.1799 20.7972 17.5829 20.3714 16.5185C19.9457 15.4968 19.4987 15.6245 19.1794 15.6032H18.1576C17.7957 15.6032 17.2423 15.7309 16.7527 16.2631C16.2844 16.7952 14.922 18.0725 14.922 20.6694C14.922 23.2664 16.8166 25.7783 17.072 26.1189C17.3274 26.4807 20.7972 31.8025 26.0763 34.0801C27.3322 34.6336 28.3114 34.9529 29.0778 35.1871C30.3337 35.5915 31.4832 35.5276 32.3985 35.3999C33.4203 35.2509 35.5277 34.1227 35.9534 32.8881C36.4004 31.6534 36.4004 30.6104 36.2514 30.3762C36.1024 30.1421 35.7831 30.0356 35.2509 29.7802Z" fill="#024A70"/>
</svg>
